<svg height="10" viewBox="0 0 8 10" width="8" xmlns="http://www.w3.org/2000/svg"><g fill="none" fill-rule="evenodd"><g fill="#000"><path d="m0 8h1v1h-1z"/><path d="m1 7h1v1h-1z"/><path d="m1 9h1v1h-1z"/><path d="m2 9h1v1h-1z"/><path d="m3 9h1v1h-1z"/><path d="m4 9h1v1h-1z"/><path d="m2 7h1v1h-1z"/><path d="m3 7h1v1h-1z"/><path d="m4 7h1v1h-1z"/><path d="m5 7h1v1h-1z"/><path d="m6 7h1v1h-1z"/></g><path d="m6 5h1v1h-1z" fill="#fff" fill-opacity=".400514"/><path d="m6 4h1v1h-1z" fill="#fff" fill-opacity=".400514"/><path d="m6 3h1v1h-1z" fill="#fff" fill-opacity=".400514"/><path d="m6 2h1v1h-1z" fill="#fff" fill-opacity=".400514"/><path d="m6 1h1v1h-1z" fill="#fff" fill-opacity=".400514"/><path d="m6 0h1v1h-1z" fill="#fff" fill-opacity=".400514"/><path d="m6 9h1v1h-1z" fill="#000"/><path d="m5 9h1v1h-1z" fill="#000"/><path d="m7 8h1v1h-1z" fill="#000"/><path d="m6 8h1v1h-1z" fill="#e25c26"/><path d="m5 8h1v1h-1z" fill="#c6c6c6"/><path d="m4 8h1v1h-1z" fill="#c6c6c6"/><path d="m3 8h1v1h-1z" fill="#c6c6c6"/><path d="m2 8h1v1h-1z" fill="#c6c6c6"/><path d="m1 8h1v1h-1z" fill="#c6c6c6"/></g></svg>