<?xml version="1.0" encoding="UTF-8"?>
<svg width="318px" height="317px" viewBox="0 0 318 317" version="1.1" xmlns="http://www.w3.org/2000/svg" xmlns:xlink="http://www.w3.org/1999/xlink">
    <title>Group 31</title>
    <g id="Page-1" stroke="none" stroke-width="1" fill="none" fill-rule="evenodd">
        <g id="Group-31" transform="translate(0.5, 0)">
            <g id="Group-30" transform="translate(60.5, 222)">
                <g id="Group-29" fill-rule="nonzero">
                    <rect id="Rectangle" fill="#000000" x="45" y="0" width="5" height="5"></rect>
                    <rect id="Rectangle" fill="#000000" x="40" y="0" width="5" height="5"></rect>
                    <rect id="Rectangle" fill="#000000" x="35" y="0" width="5" height="5"></rect>
                    <rect id="Rectangle" fill="#000000" x="30" y="0" width="5" height="5"></rect>
                    <rect id="Rectangle" fill="#000000" x="25" y="0" width="5" height="5"></rect>
                    <rect id="Rectangle" fill="#000000" x="20" y="0" width="5" height="5"></rect>
                    <rect id="Rectangle" fill="#000000" x="15" y="0" width="5" height="5"></rect>
                    <rect id="Rectangle" fill="#000000" x="50" y="5" width="5" height="5"></rect>
                    <rect id="Rectangle" fill="#000000" x="10" y="5" width="5" height="5"></rect>
                    <rect id="Rectangle" fill="#000000" x="55" y="10" width="5" height="5"></rect>
                    <rect id="Rectangle" fill="#FFFFFF" opacity="0.100000001" x="40" y="10" width="5" height="5"></rect>
                    <rect id="Rectangle" fill="#000000" x="5" y="10" width="5" height="5"></rect>
                    <rect id="Rectangle" fill="#000000" x="55" y="15" width="5" height="5"></rect>
                    <rect id="Rectangle" fill="#FFFFFF" opacity="0.100000001" x="45" y="15" width="5" height="5"></rect>
                    <rect id="Rectangle" fill="#000000" x="5" y="15" width="5" height="5"></rect>
                    <rect id="Rectangle" fill="#000000" x="55" y="20" width="5" height="5"></rect>
                    <rect id="Rectangle" fill="#000000" x="5" y="20" width="5" height="5"></rect>
                    <rect id="Rectangle" fill="#000000" x="55" y="25" width="5" height="5"></rect>
                    <rect id="Rectangle" fill="#000000" x="5" y="25" width="5" height="5"></rect>
                    <rect id="Rectangle" fill="#000000" x="60" y="30" width="5" height="5"></rect>
                    <rect id="Rectangle" fill="#000000" x="55" y="30" width="5" height="5"></rect>
                    <rect id="Rectangle" fill="#000000" x="50" y="30" width="5" height="5"></rect>
                    <rect id="Rectangle" fill="#000000" x="45" y="30" width="5" height="5"></rect>
                    <rect id="Rectangle" fill="#000000" x="40" y="30" width="5" height="5"></rect>
                    <rect id="Rectangle" fill="#000000" x="35" y="30" width="5" height="5"></rect>
                    <rect id="Rectangle" fill="#000000" x="30" y="30" width="5" height="5"></rect>
                    <rect id="Rectangle" fill="#000000" x="25" y="30" width="5" height="5"></rect>
                    <rect id="Rectangle" fill="#000000" x="20" y="30" width="5" height="5"></rect>
                    <rect id="Rectangle" fill="#000000" x="15" y="30" width="5" height="5"></rect>
                    <rect id="Rectangle" fill="#000000" x="10" y="30" width="5" height="5"></rect>
                    <rect id="Rectangle" fill="#000000" x="5" y="30" width="5" height="5"></rect>
                    <rect id="Rectangle" fill="#000000" x="0" y="30" width="5" height="5"></rect>
                    <rect id="Rectangle" fill="#000000" x="60" y="35" width="5" height="5"></rect>
                    <rect id="Rectangle" fill="#000000" x="45" y="35" width="5" height="5"></rect>
                    <rect id="Rectangle" fill="#000000" x="40" y="35" width="5" height="5"></rect>
                    <rect id="Rectangle" fill="#000000" x="35" y="35" width="5" height="5"></rect>
                    <rect id="Rectangle" fill="#000000" x="30" y="35" width="5" height="5"></rect>
                    <rect id="Rectangle" fill="#000000" x="15" y="35" width="5" height="5"></rect>
                    <rect id="Rectangle" fill="#000000" x="10" y="35" width="5" height="5"></rect>
                    <rect id="Rectangle" fill="#000000" x="5" y="35" width="5" height="5"></rect>
                    <rect id="Rectangle" fill="#000000" x="0" y="35" width="5" height="5"></rect>
                    <rect id="Rectangle" fill="#000000" x="60" y="40" width="5" height="5"></rect>
                    <rect id="Rectangle" fill="#000000" x="40" y="40" width="5" height="5"></rect>
                    <rect id="Rectangle" fill="#000000" x="35" y="40" width="5" height="5"></rect>
                    <rect id="Rectangle" fill="#000000" x="10" y="40" width="5" height="5"></rect>
                    <rect id="Rectangle" fill="#000000" x="5" y="40" width="5" height="5"></rect>
                    <rect id="Rectangle" fill="#000000" x="60" y="45" width="5" height="5"></rect>
                    <rect id="Rectangle" fill="#000000" x="55" y="45" width="5" height="5"></rect>
                    <rect id="Rectangle" fill="#000000" x="5" y="45" width="5" height="5"></rect>
                    <rect id="Rectangle" fill="#000000" x="55" y="50" width="5" height="5"></rect>
                    <rect id="Rectangle" fill="#000000" x="25" y="50" width="5" height="5"></rect>
                    <rect id="Rectangle" fill="#000000" x="20" y="50" width="5" height="5"></rect>
                    <rect id="Rectangle" fill="#000000" x="5" y="50" width="5" height="5"></rect>
                    <rect id="Rectangle" fill="#000000" x="55" y="55" width="5" height="5"></rect>
                    <rect id="Rectangle" fill="#000000" x="5" y="55" width="5" height="5"></rect>
                    <rect id="Rectangle" fill="#000000" x="55" y="60" width="5" height="5"></rect>
                    <rect id="Rectangle" fill="#A66E2C" x="35" y="60" width="5" height="5"></rect>
                    <rect id="Rectangle" fill="#A66E2C" x="30" y="60" width="5" height="5"></rect>
                    <rect id="Rectangle" fill="#A66E2C" x="25" y="60" width="5" height="5"></rect>
                    <rect id="Rectangle" fill="#A66E2C" x="20" y="60" width="5" height="5"></rect>
                    <rect id="Rectangle" fill="#A66E2C" x="15" y="60" width="5" height="5"></rect>
                    <rect id="Rectangle" fill="#000000" x="5" y="60" width="5" height="5"></rect>
                    <rect id="Rectangle" fill="#000000" x="55" y="65" width="5" height="5"></rect>
                    <rect id="Rectangle" fill="#A66E2C" x="35" y="65" width="5" height="5"></rect>
                    <rect id="Rectangle" fill="#000000" x="30" y="65" width="5" height="5"></rect>
                    <rect id="Rectangle" fill="#000000" x="25" y="65" width="5" height="5"></rect>
                    <rect id="Rectangle" fill="#000000" x="20" y="65" width="5" height="5"></rect>
                    <rect id="Rectangle" fill="#A66E2C" x="15" y="65" width="5" height="5"></rect>
                    <rect id="Rectangle" fill="#000000" x="5" y="65" width="5" height="5"></rect>
                    <rect id="Rectangle" fill="#000000" x="55" y="70" width="5" height="5"></rect>
                    <rect id="Rectangle" fill="#A66E2C" x="35" y="70" width="5" height="5"></rect>
                    <rect id="Rectangle" fill="#A66E2C" x="30" y="70" width="5" height="5"></rect>
                    <rect id="Rectangle" fill="#A66E2C" x="25" y="70" width="5" height="5"></rect>
                    <rect id="Rectangle" fill="#A66E2C" x="20" y="70" width="5" height="5"></rect>
                    <rect id="Rectangle" fill="#A66E2C" x="15" y="70" width="5" height="5"></rect>
                    <rect id="Rectangle" fill="#000000" x="5" y="70" width="5" height="5"></rect>
                    <rect id="Rectangle" fill="#000000" x="55" y="75" width="5" height="5"></rect>
                    <rect id="Rectangle" fill="#A66E2C" x="30" y="75" width="5" height="5"></rect>
                    <rect id="Rectangle" fill="#A66E2C" x="25" y="75" width="5" height="5"></rect>
                    <rect id="Rectangle" fill="#A66E2C" x="20" y="75" width="5" height="5"></rect>
                    <rect id="Rectangle" fill="#000000" x="10" y="75" width="5" height="5"></rect>
                    <rect id="Rectangle" fill="#000000" x="55" y="80" width="5" height="5"></rect>
                    <rect id="Rectangle" fill="#000000" x="35" y="80" width="5" height="5"></rect>
                    <rect id="Rectangle" fill="#A66E2C" x="30" y="80" width="5" height="5"></rect>
                    <rect id="Rectangle" fill="#A66E2C" x="25" y="80" width="5" height="5"></rect>
                    <rect id="Rectangle" fill="#A66E2C" x="20" y="80" width="5" height="5"></rect>
                    <rect id="Rectangle" fill="#000000" x="15" y="80" width="5" height="5"></rect>
                    <rect id="Rectangle" fill="#000000" x="55" y="85" width="5" height="5"></rect>
                    <rect id="Rectangle" fill="#000000" x="35" y="85" width="5" height="5"></rect>
                    <rect id="Rectangle" fill="#000000" x="30" y="85" width="5" height="5"></rect>
                    <rect id="Rectangle" fill="#000000" x="25" y="85" width="5" height="5"></rect>
                    <rect id="Rectangle" fill="#000000" x="20" y="85" width="5" height="5"></rect>
                    <rect id="Rectangle" fill="#000000" x="55" y="90" width="5" height="5"></rect>
                    <rect id="Rectangle" fill="#000000" x="35" y="90" width="5" height="5"></rect>
                </g>
                <g id="Group-2" transform="translate(97, 13)" fill="#000000" fill-rule="nonzero">
                    <g id="Group" transform="translate(0.0967, 13.6664)">
                        <path d="M0,0 L11.2,0 L11.2,2.80758808 L2.8,2.80758808 L2.8,5.61517615 L11.2,5.61517615 L11.2,8.42276423 L2.8,8.42276423 L2.8,14 L0,14 L0,0 Z M11.2,2.80758808 L14,2.80758808 L14,5.61517615 L11.2,5.61517615 L11.2,2.80758808 Z" id="Shape"></path>
                        <polygon id="Path" points="16 0 18.8 0 18.8 5.61517615 27.2 5.61517615 27.2 0 30 0 30 14 27.2 14 27.2 8.42276423 18.8 8.42276423 18.8 14 16 14"></polygon>
                        <path d="M33,0 L35.8,0 L35.8,11.2303523 L33,11.2303523 L33,0 Z M44.2,0 L47,0 L47,11.2303523 L44.2,11.2303523 L44.2,0 Z M35.8,11.2303523 L44.2,11.2303523 L44.2,14 L35.8,14 L35.8,11.2303523 Z" id="Shape"></path>
                        <path d="M50,0 L52.8,0 L52.8,2.80758808 L55.6,2.80758808 L55.6,5.61517615 L52.8,5.61517615 L52.8,14 L50,14 L50,0 Z M61.2,0 L64,0 L64,14 L61.2,14 L61.2,11.2303523 L58.4,11.2303523 L58.4,8.42276423 L61.2,8.42276423 L61.2,0 Z M55.6,5.61517615 L58.4,5.61517615 L58.4,8.42276423 L55.6,8.42276423 L55.6,5.61517615 Z" id="Shape"></path>
                        <path d="M67,0 L69.8,0 L69.8,5.61517615 L75.4,5.61517615 L75.4,8.42276423 L69.8,8.42276423 L69.8,14 L67,14 L67,0 Z M78.2,0 L81,0 L81,2.80758808 L78.2,2.80758808 L78.2,0 Z M75.4,2.80758808 L78.2,2.80758808 L78.2,5.61517615 L75.4,5.61517615 L75.4,2.80758808 Z M75.4,8.42276423 L78.2,8.42276423 L78.2,11.2303523 L75.4,11.2303523 L75.4,8.42276423 Z M78.2,11.2303523 L81,11.2303523 L81,14 L78.2,14 L78.2,11.2303523 Z" id="Shape"></path>
                        <path d="M86.8,0 L98,0 L98,2.80758808 L86.8,2.80758808 L86.8,0 Z M84,2.80758808 L86.8,2.80758808 L86.8,5.61517615 L84,5.61517615 L84,2.80758808 Z M86.8,5.61517615 L95.2,5.61517615 L95.2,8.42276423 L86.8,8.42276423 L86.8,5.61517615 Z M95.2,8.42276423 L98,8.42276423 L98,11.2303523 L95.2,11.2303523 L95.2,8.42276423 Z M84,11.2303523 L95.2,11.2303523 L95.2,14 L84,14 L84,11.2303523 Z" id="Shape"></path>
                    </g>
                    <g id="Ethereum">
                        <polygon id="Path" points="0 0 10.6725533 0 10.6725533 2.13451067 2.13451067 2.13451067 2.13451067 4.26902134 8.53804268 4.26902134 8.53804268 6.40353201 2.13451067 6.40353201 2.13451067 8.53804268 10.6725533 8.53804268 10.6725533 10.6437086 0 10.6437086"></polygon>
                        <polygon id="Path" points="12.4753495 0 23.1479029 0 23.1479029 2.13451067 18.8788815 2.13451067 18.8788815 10.6437086 16.7443709 10.6437086 16.7443709 2.13451067 12.4753495 2.13451067"></polygon>
                        <polygon id="Path" points="24.950699 0 27.0852097 0 27.0852097 4.26902134 33.4887417 4.26902134 33.4887417 0 35.6232524 0 35.6232524 10.6437086 33.4887417 10.6437086 33.4887417 6.40353201 27.0852097 6.40353201 27.0852097 10.6437086 24.950699 10.6437086"></polygon>
                        <polygon id="Path" points="37.4260486 0 48.0986019 0 48.0986019 2.13451067 39.5605592 2.13451067 39.5605592 4.26902134 45.9640912 4.26902134 45.9640912 6.40353201 39.5605592 6.40353201 39.5605592 8.53804268 48.0986019 8.53804268 48.0986019 10.6437086 37.4260486 10.6437086"></polygon>
                        <path d="M49.9013981,0 L58.4394408,0 L58.4394408,2.13451067 L52.0359088,2.13451067 L52.0359088,4.26902134 L58.4394408,4.26902134 L58.4394408,6.40353201 L52.0359088,6.40353201 L52.0359088,10.6437086 L49.9013981,10.6437086 L49.9013981,0 Z M58.4394408,2.13451067 L60.5739514,2.13451067 L60.5739514,4.26902134 L58.4394408,4.26902134 L58.4394408,2.13451067 Z M58.4394408,6.40353201 L60.5739514,6.40353201 L60.5739514,10.6437086 L58.4394408,10.6437086 L58.4394408,6.40353201 Z" id="Shape"></path>
                        <polygon id="Path" points="62.3767476 0 73.049301 0 73.049301 2.13451067 64.5112583 2.13451067 64.5112583 4.26902134 70.9147903 4.26902134 70.9147903 6.40353201 64.5112583 6.40353201 64.5112583 8.53804268 73.049301 8.53804268 73.049301 10.6437086 62.3767476 10.6437086"></polygon>
                        <path d="M74.8520971,0 L76.9866078,0 L76.9866078,8.53804268 L74.8520971,8.53804268 L74.8520971,0 Z M83.3901398,0 L85.5246505,0 L85.5246505,8.53804268 L83.3901398,8.53804268 L83.3901398,0 Z M76.9866078,8.53804268 L83.3901398,8.53804268 L83.3901398,10.6437086 L76.9866078,10.6437086 L76.9866078,8.53804268 Z" id="Shape"></path>
                        <path d="M87.3274467,0 L89.4619573,0 L89.4619573,2.13451067 L91.596468,2.13451067 L91.596468,4.26902134 L89.4619573,4.26902134 L89.4619573,10.6437086 L87.3274467,10.6437086 L87.3274467,0 Z M95.8654893,0 L98,0 L98,10.6437086 L95.8654893,10.6437086 L95.8654893,4.26902134 L93.7309787,4.26902134 L93.7309787,2.13451067 L95.8654893,2.13451067 L95.8654893,0 Z M91.596468,4.26902134 L93.7309787,4.26902134 L93.7309787,6.40353201 L91.596468,6.40353201 L91.596468,4.26902134 Z" id="Shape"></path>
                    </g>
                </g>
                <path d="M157.537347,60.0674471 L159.074693,60.0674471 L159.074693,61.6047938 L157.537347,61.6047938 Z M159.074693,61.6047938 L160.61204,61.6047938 L160.61204,64.6794873 L159.074693,64.6794873 L159.074693,61.6047938 Z M157.537347,63.1421405 L159.074693,63.1421405 L159.074693,64.6794873 L157.537347,64.6794873 Z M156,63.1421405 L157.537347,63.1421405 L157.537347,64.6794873 L156,64.6794873 Z M160.61204,63.1421405 L162.149387,63.1421405 L162.149387,64.6794873 L160.61204,64.6794873 Z M162.149387,63.1421405 L163.686734,63.1421405 L163.686734,64.6794873 L162.149387,64.6794873 Z M166.761427,66.216834 L166.761427,67.7541807 L165.22408,67.7541807 L165.22408,66.216834 L166.761427,66.216834 Z M165.22408,64.6794873 L165.22408,66.216834 L163.686734,66.216834 L163.686734,64.6794873 L165.22408,64.6794873 Z M165.22408,67.7541807 L166.761427,67.7541807 L166.761427,70.8288741 L165.22408,70.8288741 L165.22408,67.7541807 Z M162.149387,67.7541807 L163.686734,67.7541807 L163.686734,70.8288741 L162.149387,70.8288741 L162.149387,67.7541807 Z M160.61204,67.7541807 L162.149387,67.7541807 L162.149387,69.2915274 L160.61204,69.2915274 Z M159.074693,67.7541807 L160.61204,67.7541807 L160.61204,69.2915274 L159.074693,69.2915274 Z M157.537347,67.7541807 L159.074693,67.7541807 L159.074693,70.8288741 L157.537347,70.8288741 L157.537347,67.7541807 Z M157.537347,64.6794873 L159.074693,64.6794873 L159.074693,67.7541807 L157.537347,67.7541807 L157.537347,64.6794873 Z M157.537347,70.8288741 L159.074693,70.8288741 L159.074693,72.3662208 L157.537347,72.3662208 Z M157.537347,72.3662208 L159.074693,72.3662208 L159.074693,75.4409143 L157.537347,75.4409143 L157.537347,72.3662208 Z M156,75.4409143 L157.537347,75.4409143 L157.537347,76.978261 L156,76.978261 Z M160.61204,75.4409143 L162.149387,75.4409143 L162.149387,76.978261 L160.61204,76.978261 Z M162.149387,75.4409143 L163.686734,75.4409143 L163.686734,76.978261 L162.149387,76.978261 Z M162.149387,72.3662208 L163.686734,72.3662208 L163.686734,75.4409143 L162.149387,75.4409143 L162.149387,72.3662208 Z M162.149387,70.8288741 L163.686734,70.8288741 L163.686734,72.3662208 L162.149387,72.3662208 Z M166.761427,70.8288741 L168.298774,70.8288741 L168.298774,72.3662208 L166.761427,72.3662208 Z M171.373467,73.9035676 L171.373467,75.4409143 L169.83612,75.4409143 L169.83612,73.9035676 L171.373467,73.9035676 Z M169.83612,72.3662208 L169.83612,73.9035676 L168.298774,73.9035676 L168.298774,72.3662208 L169.83612,72.3662208 Z M171.373467,75.4409143 L172.910814,75.4409143 L172.910814,76.978261 L171.373467,76.978261 Z M166.761427,73.9035676 L168.298774,73.9035676 L168.298774,75.4409143 L166.761427,75.4409143 Z M165.22408,75.4409143 L166.761427,75.4409143 L166.761427,76.978261 L165.22408,76.978261 Z M169.83612,70.8288741 L171.373467,70.8288741 L171.373467,72.3662208 L169.83612,72.3662208 Z M169.83612,67.7541807 L171.373467,67.7541807 L171.373467,70.8288741 L169.83612,70.8288741 L169.83612,67.7541807 Z M169.83612,64.6794873 L171.373467,64.6794873 L171.373467,67.7541807 L169.83612,67.7541807 L169.83612,64.6794873 Z M168.298774,64.6794873 L168.298774,63.1421405 L171.373467,63.1421405 L171.373467,64.6794873 L168.298774,64.6794873 Z M171.373467,63.1421405 L172.910814,63.1421405 L172.910814,64.6794873 L171.373467,64.6794873 Z M165.22408,61.6047938 L166.761427,61.6047938 L166.761427,63.1421405 L168.298774,63.1421405 L168.298774,64.6794873 L165.22408,64.6794873 L165.22408,61.6047938 Z M165.22408,60.0674471 L166.761427,60.0674471 L166.761427,61.6047938 L165.22408,61.6047938 Z M186.746934,63.1421405 L186.746934,61.6047938 L191.358975,61.6047938 L191.358975,63.1421405 L186.746934,63.1421405 Z M183.672241,63.1421405 L183.672241,61.6047938 L186.746934,61.6047938 L186.746934,63.1421405 L183.672241,63.1421405 Z M183.672241,61.6047938 L183.672241,64.6794873 L182.134894,64.6794873 L182.134894,63.1421405 L180.597547,63.1421405 L180.597547,61.6047938 L183.672241,61.6047938 Z M182.134894,60.0674471 L183.672241,60.0674471 L183.672241,61.6047938 L182.134894,61.6047938 Z M177.522854,66.216834 L177.522854,67.7541807 L175.985507,67.7541807 L175.985507,64.6794873 L180.597547,64.6794873 L180.597547,66.216834 L177.522854,66.216834 Z M180.597547,70.8288741 L180.597547,69.2915274 L183.672241,69.2915274 L183.672241,70.8288741 L180.597547,70.8288741 Z M186.746934,66.216834 L186.746934,64.6794873 L189.821628,64.6794873 L189.821628,67.7541807 L188.284281,67.7541807 L188.284281,66.216834 L186.746934,66.216834 Z M175.985507,63.1421405 L175.985507,61.6047938 L180.597547,61.6047938 L180.597547,63.1421405 L175.985507,63.1421405 Z M175.985507,70.8288741 L175.985507,67.7541807 L177.522854,67.7541807 L177.522854,69.2915274 L180.597547,69.2915274 L180.597547,70.8288741 L175.985507,70.8288741 Z M183.672241,66.216834 L183.672241,64.6794873 L186.746934,64.6794873 L186.746934,66.216834 L183.672241,66.216834 Z M174.448161,61.6047938 L175.985507,61.6047938 L175.985507,63.1421405 L174.448161,63.1421405 Z M180.597547,66.216834 L180.597547,64.6794873 L183.672241,64.6794873 L183.672241,66.216834 L180.597547,66.216834 Z M183.672241,70.8288741 L183.672241,69.2915274 L186.746934,69.2915274 L186.746934,70.8288741 L183.672241,70.8288741 Z M188.284281,69.2915274 L188.284281,67.7541807 L189.821628,67.7541807 L189.821628,70.8288741 L186.746934,70.8288741 L186.746934,69.2915274 L188.284281,69.2915274 Z M185.209588,70.8288741 L186.746934,70.8288741 L186.746934,72.3662208 L185.209588,72.3662208 Z M185.209588,72.3662208 L186.746934,72.3662208 L186.746934,75.4409143 L185.209588,75.4409143 L185.209588,72.3662208 Z M185.209588,75.4409143 L186.746934,75.4409143 L186.746934,76.978261 L185.209588,76.978261 Z M186.746934,76.978261 L186.746934,75.4409143 L191.358975,75.4409143 L191.358975,76.978261 L186.746934,76.978261 Z M189.821628,72.3662208 L191.358975,72.3662208 L191.358975,75.4409143 L189.821628,75.4409143 L189.821628,72.3662208 Z M179.060201,70.8288741 L180.597547,70.8288741 L180.597547,72.3662208 L179.060201,72.3662208 Z M179.060201,73.9035676 L179.060201,75.4409143 L177.522854,75.4409143 L177.522854,73.9035676 L179.060201,73.9035676 Z M180.597547,72.3662208 L180.597547,73.9035676 L179.060201,73.9035676 L179.060201,72.3662208 L180.597547,72.3662208 Z M175.985507,75.4409143 L177.522854,75.4409143 L177.522854,76.978261 L175.985507,76.978261 Z M174.448161,75.4409143 L175.985507,75.4409143 L175.985507,76.978261 L174.448161,76.978261 Z" id="Combined-Shape" fill="#000000"></path>
                <path d="M104.622711,75.2454214 L104.622711,76.7699636 L101.573626,76.7699636 L101.573626,75.2454214 L104.622711,75.2454214 Z M113.769964,75.2454214 L113.769964,76.7699636 L112.245421,76.7699636 L112.245421,75.2454214 L113.769964,75.2454214 Z M106.147253,73.7208793 L106.147253,75.2454214 L104.622711,75.2454214 L104.622711,73.7208793 L106.147253,73.7208793 Z M100.049084,61.5245421 L100.049084,72.1963371 L101.573626,72.1963371 L101.573626,73.7208793 L100.049084,73.7208793 L100.049084,75.2454214 L97,75.2454214 L97,73.7208793 L98.5245421,73.7208793 L98.5245421,61.5245421 L100.049084,61.5245421 Z M112.245421,73.7208793 L112.245421,75.2454214 L110.720879,75.2454214 L110.720879,73.7208793 L112.245421,73.7208793 Z M107.671795,72.1963371 L107.671795,73.7208793 L106.147253,73.7208793 L106.147253,72.1963371 L107.671795,72.1963371 Z M110.720879,72.1963371 L110.720879,73.7208793 L109.196337,73.7208793 L109.196337,72.1963371 L110.720879,72.1963371 Z M103.098169,70.671795 L103.098169,72.1963371 L101.573626,72.1963371 L101.573626,70.671795 L103.098169,70.671795 Z M109.196337,69.1472529 L109.196337,72.1963371 L107.671795,72.1963371 L107.671795,69.1472529 L109.196337,69.1472529 Z M104.622711,69.1472529 L104.622711,70.671795 L103.098169,70.671795 L103.098169,69.1472529 L104.622711,69.1472529 Z M110.720879,60 L110.720879,69.1472529 L109.196337,69.1472529 L109.196337,60 L110.720879,60 Z M106.147253,63.0490843 L106.147253,66.0981686 L104.622711,66.0981686 L104.622711,63.0490843 L106.147253,63.0490843 Z M104.622711,61.5245421 L104.622711,63.0490843 L103.098169,63.0490843 L103.098169,61.5245421 L104.622711,61.5245421 Z M147.309891,75.2454214 L147.309891,76.7699636 L144.260806,76.7699636 L144.260806,75.2454214 L147.309891,75.2454214 Z M139.68718,75.2454214 L139.68718,76.7699636 L138.162638,76.7699636 L138.162638,75.2454214 L139.68718,75.2454214 Z M141.211722,72.1963371 L141.211722,75.2454214 L139.68718,75.2454214 L139.68718,72.1963371 L141.211722,72.1963371 Z M145.785349,61.5245421 L145.785349,63.0490843 L150.358975,63.0490843 L150.358975,64.5736264 L142.736264,64.5736264 L142.736264,67.6227107 L148.834433,67.6227107 L148.834433,75.2454214 L147.309891,75.2454214 L147.309891,69.1472529 L142.736264,69.1472529 L142.736264,72.1963371 L141.211722,72.1963371 L141.211722,64.5736264 L138.162638,64.5736264 L138.162638,63.0490843 L144.260806,63.0490843 L144.260806,61.5245421 L145.785349,61.5245421 Z M136.638096,60 L136.638096,64.5736264 L138.162638,64.5736264 L138.162638,66.0981686 L136.638096,66.0981686 L136.638096,70.671795 L138.162638,70.671795 L138.162638,72.1963371 L136.638096,72.1963371 L136.638096,73.7208793 L133.589011,73.7208793 L133.589011,72.1963371 L135.113554,72.1963371 L135.113554,66.0981686 L133.589011,66.0981686 L133.589011,64.5736264 L135.113554,64.5736264 L135.113554,60 L136.638096,60 Z M144.260806,60 L144.260806,61.5245421 L142.736264,61.5245421 L142.736264,60 L144.260806,60 Z M132.064469,75.2454214 L132.064469,76.7699636 L129.015385,76.7699636 L129.015385,75.2454214 L132.064469,75.2454214 Z M124.441759,75.2454214 L124.441759,76.7699636 L122.917216,76.7699636 L122.917216,75.2454214 L124.441759,75.2454214 Z M118.34359,75.2454214 L118.34359,76.7699636 L115.294506,76.7699636 L115.294506,75.2454214 L118.34359,75.2454214 Z M129.015385,73.7208793 L129.015385,75.2454214 L127.490843,75.2454214 L127.490843,73.7208793 L129.015385,73.7208793 Z M122.917216,73.7208793 L122.917216,75.2454214 L121.392674,75.2454214 L121.392674,73.7208793 L122.917216,73.7208793 Z M119.868132,73.7208793 L119.868132,75.2454214 L118.34359,75.2454214 L118.34359,73.7208793 L119.868132,73.7208793 Z M121.392674,70.671795 L121.392674,73.7208793 L119.868132,73.7208793 L119.868132,70.671795 L121.392674,70.671795 Z M127.490843,70.671795 L127.490843,73.7208793 L125.966301,73.7208793 L125.966301,70.671795 L127.490843,70.671795 Z M122.917216,67.6227107 L122.917216,70.671795 L121.392674,70.671795 L121.392674,67.6227107 L122.917216,67.6227107 Z M125.966301,67.6227107 L125.966301,70.671795 L124.441759,70.671795 L124.441759,67.6227107 L125.966301,67.6227107 Z M115.294506,66.0981686 L115.294506,64.5736264 L122.917216,64.5736264 L122.917216,60 L124.441759,60 L124.441759,64.5736264 L132.064469,64.5736264 L132.064469,66.0981686 L124.441759,66.0981686 L124.441759,67.6227107 L122.917216,67.6227107 L122.917216,66.0981686 L115.294506,66.0981686 Z" id="Shape" fill="#000000"></path>
                <line x1="195" y1="50" x2="97" y2="50" id="Line" stroke="#000000" stroke-width="2" opacity="0.200000003" stroke-linecap="square"></line>
            </g>
            <text id="Eat-Shit" font-family="RetroComputer, Retro Computer" font-size="33" font-weight="normal" fill="#000000">
                <tspan x="55.7944336" y="115">Eat Shit</tspan>
            </text>
        </g>
    </g>
</svg>