<svg height="28" viewBox="0 0 184 28" width="184" xmlns="http://www.w3.org/2000/svg"><g fill="#000" fill-rule="evenodd"><g fill-rule="nonzero"><g transform="translate(32.0967 13.6664)"><path d="m0 0h11.2v2.80758808h-8.4v2.80758807h8.4v2.80758808h-8.4v5.57723577h-2.8zm11.2 2.80758808h2.8v2.80758807h-2.8z"/><path d="m16 0h2.8v5.61517615h8.4v-5.61517615h2.8v14h-2.8v-5.57723577h-8.4v5.57723577h-2.8z"/><path d="m33 0h2.8v11.2303523h-2.8zm11.2 0h2.8v11.2303523h-2.8zm-8.4 11.2303523h8.4v2.7696477h-8.4z"/><path d="m50 0h2.8v2.80758808h2.8v2.80758807h-2.8v8.38482385h-2.8zm11.2 0h2.8v14h-2.8v-2.7696477h-2.8v-2.80758807h2.8zm-5.6 5.61517615h2.8v2.80758808h-2.8z"/><path d="m67 0h2.8v5.61517615h5.6v2.80758808h-5.6v5.57723577h-2.8zm11.2 0h2.8v2.80758808h-2.8zm-2.8 2.80758808h2.8v2.80758807h-2.8zm0 5.61517615h2.8v2.80758807h-2.8zm2.8 2.80758807h2.8v2.7696477h-2.8z"/><path d="m86.8 0h11.2v2.80758808h-11.2zm-2.8 2.80758808h2.8v2.80758807h-2.8zm2.8 2.80758807h8.4v2.80758808h-8.4zm8.4 2.80758808h2.8v2.80758807h-2.8zm-11.2 2.80758807h11.2v2.7696477h-11.2z"/></g><g transform="translate(32)"><path d="m0 0h10.6725533v2.13451067h-8.53804263v2.13451067h6.40353201v2.13451067h-6.40353201v2.13451067h8.53804263v2.10566592h-10.6725533z"/><path d="m12.4753495 0h10.6725534v2.13451067h-4.2690214v8.50919793h-2.1345106v-8.50919793h-4.2690214z"/><path d="m24.950699 0h2.1345107v4.26902134h6.403532v-4.26902134h2.1345107v10.6437086h-2.1345107v-4.24017659h-6.403532v4.24017659h-2.1345107z"/><path d="m37.4260486 0h10.6725533v2.13451067h-8.5380427v2.13451067h6.403532v2.13451067h-6.403532v2.13451067h8.5380427v2.10566592h-10.6725533z"/><path d="m49.9013981 0h8.5380427v2.13451067h-6.403532v2.13451067h6.403532v2.13451067h-6.403532v4.24017659h-2.1345107zm8.5380427 2.13451067h2.1345106v2.13451067h-2.1345106zm0 4.26902134h2.1345106v4.24017659h-2.1345106z"/><path d="m62.3767476 0h10.6725534v2.13451067h-8.5380427v2.13451067h6.403532v2.13451067h-6.403532v2.13451067h8.5380427v2.10566592h-10.6725534z"/><path d="m74.8520971 0h2.1345107v8.53804268h-2.1345107zm8.5380427 0h2.1345107v8.53804268h-2.1345107zm-6.403532 8.53804268h6.403532v2.10566592h-6.403532z"/><path d="m87.3274467 0h2.1345106v2.13451067h2.1345107v2.13451067h-2.1345107v6.37468726h-2.1345106zm8.5380426 0h2.1345107v10.6437086h-2.1345107v-6.37468726h-2.1345106v-2.13451067h2.1345106zm-4.2690213 4.26902134h2.1345107v2.13451067h-2.1345107z"/></g></g><g transform="translate(151)"><path d="m1.43478261 12h1.43478261v1.4545455h-1.43478261zm1.43478261 1.4545455h1.43478261v1.4545454h-1.43478261zm0 2.9090909v1.4545454h-1.43478261v-1.4545454h-1.43478261v-1.4545455h7.17391304v1.4545455zm4.30434782 0h1.43478261v1.4545454h-1.43478261zm1.43478261 1.4545454h1.43478265v1.4545455h-1.43478265zm0 1.4545455h1.43478265v1.4545454h-1.43478265zm2.86956525 2.9090909v1.4545454h-1.4347826v-1.4545454zm-1.4347826-1.4545455v1.4545455h-1.43478265v-1.4545455zm-8.60869569 0v-1.4545454h5.73913043v1.4545454zm0-2.9090909h1.43478261v1.4545455h-1.43478261zm0 2.9090909h1.43478261v2.9090909h-1.43478261zm0 2.9090909h1.43478261v1.4545455h-1.43478261zm0 1.4545455h1.43478261v1.4545454h-1.43478261zm-1.43478261 1.4545454h1.43478261v1.4545455h-1.43478261zm4.30434783 1.4545455v-1.4545455h2.86956521v1.4545455zm1.4347826-2.9090909h1.43478261v1.4545454h-1.43478261zm0-1.4545455h1.43478261v1.4545455h-1.43478261zm0-2.9090909h1.43478261v2.9090909h-1.43478261zm5.73913047 2.9090909h1.4347826v1.4545455h-1.4347826zm1.4347826 1.4545455h1.4347826v1.4545454h-1.4347826zm1.4347826 1.4545454h1.4347826v1.4545455h-1.4347826zm-4.3043478-1.4545454h1.4347826v1.4545454h-1.4347826zm-1.43478265 1.4545454h1.43478265v1.4545455h-1.43478265zm4.30434785-5.8181818h1.4347826v2.9090909h-1.4347826zm0-1.4545454h1.4347826v1.4545454h-1.4347826zm0-1.4545455h1.4347826v1.4545455h-1.4347826zm-4.30434785-1.4545454v-1.4545455h7.17391305v1.4545455h-1.4347826v1.4545454h-1.4347826v-1.4545454zm0-2.9090909h1.43478265v1.4545454h-1.43478265zm0-1.4545455h1.43478265v1.4545455h-1.43478265zm22.95652175 1.4545455h1.4347826v1.4545454h-1.4347826zm-1.4347826 0h1.4347826v1.4545454h-1.4347826zm-7.1739131 1.4545454v-1.4545454h7.1739131v1.4545454zm1.4347826-2.9090909h1.4347827v1.4545455h-1.4347827zm5.7391305 4.3636364v1.4545454h-7.1739131v-1.4545454h1.4347826v-1.4545455h1.4347827v1.4545455zm-11.4782609 1.4545454v-1.4545454h4.3043478v1.4545454zm11.4782609 2.9090909v1.4545455h-1.4347826v1.4545454h-1.4347826v-1.4545454h-4.3043479v-1.4545455zm0-4.3636363h1.4347826v1.4545454h-1.4347826zm-11.4782609-1.4545455v-1.4545454h4.3043478v1.4545454zm0 7.2727273v-1.4545455h4.3043478v2.9090909h-1.4347826v-1.4545454zm-1.4347826-8.7272727h1.4347826v1.4545454h-1.4347826zm1.4347826 4.3636363h1.4347826v1.4545455h-1.4347826zm0 1.4545455h1.4347826v1.4545454h-1.4347826zm11.4782609 1.4545454h1.4347826v1.4545455h-1.4347826zm0-1.4545454h1.4347826v1.4545454h-1.4347826zm0-1.4545455h1.4347826v1.4545455h-1.4347826zm-2.8695652 5.8181818h1.4347826v1.4545455h-1.4347826zm0 1.4545455h1.4347826v1.4545454h-1.4347826zm0 2.9090909v-1.4545455h2.8695652v1.4545455zm2.8695652-1.4545455h1.4347826v1.4545455h-1.4347826zm1.4347826 0h1.4347826v1.4545455h-1.4347826zm0-1.4545454h1.4347826v1.4545454h-1.4347826zm0-1.4545455h1.4347826v1.4545455h-1.4347826zm-10.0434783 0h1.4347826v1.4545455h-1.4347826zm-1.4347826 1.4545455h1.4347826v1.4545454h-1.4347826zm-1.4347826 1.4545454h1.4347826v1.4545455h-1.4347826zm-1.4347826 0h1.4347826v1.4545455h-1.4347826z"/><path d="m4.71428571 9.09090909v.90909091h-1.88571428v-.90909091zm5.65714289 0v.90909091h-.94285717v-.90909091zm-4.71428574-.90909091v.90909091h-.94285715v-.90909091zm-3.77142857-7.27272727v6.36363636h.94285714v.90909091h-.94285714v.90909091h-1.88571429v-.90909091h.94285714v-7.27272727zm7.54285714 7.27272727v.90909091h-.94285714v-.90909091zm-2.82857143-.90909091v.90909091h-.94285714v-.90909091zm1.88571429 0v.90909091h-.94285715v-.90909091zm-4.71428572-.90909091v.90909091h-.94285714v-.90909091zm3.77142857-.90909091v1.81818182h-.94285714v-1.81818182zm-2.82857143 0v.90909091h-.94285714v-.90909091zm3.77142858-5.45454545v5.45454545h-.94285715v-5.45454545zm-2.82857143 1.81818182v1.81818182h-.94285715v-1.81818182zm-.94285715-.90909091v.90909091h-.94285714v-.90909091zm26.39999999 8.18181818v.90909091h-1.8857143v-.90909091zm-4.7142857 0v.90909091h-.9428571v-.90909091zm.9428571-1.81818182v1.81818182h-.9428571v-1.81818182zm2.8285715-6.36363636v.90909091h2.8285714v.90909091h-4.7142857v1.81818182h3.7714286v4.54545454h-.9428572v-3.63636364h-2.8285714v1.81818182h-.9428572v-4.54545454h-1.8857142v-.90909091h3.7714285v-.90909091zm-5.6571429-.90909091v2.72727273h.9428572v.90909091h-.9428572v2.72727272h.9428572v.90909091h-.9428572v.90909091h-1.8857143v-.90909091h.9428572v-3.63636363h-.9428572v-.90909091h.9428572v-2.72727273zm4.7142857 0v.90909091h-.9428571v-.90909091zm-7.5428571 9.09090909v.90909091h-1.8857143v-.90909091zm-4.7142857 0v.90909091h-.9428572v-.90909091zm-3.7714286 0v.90909091h-1.8857143v-.90909091zm6.6-.90909091v.90909091h-.9428571v-.90909091zm-3.7714286 0v.90909091h-.9428571v-.90909091zm-1.8857143 0v.90909091h-.9428571v-.90909091zm.9428572-1.81818182v1.81818182h-.9428572v-1.81818182zm3.7714286 0v1.81818182h-.9428572v-1.81818182zm-2.8285715-1.81818181v1.81818181h-.9428571v-1.81818181zm1.8857143 0v1.81818181h-.9428571v-1.81818181zm-6.6-.90909091v-.90909091h4.7142857v-2.72727273h.9428572v2.72727273h4.7142857v.90909091h-4.7142857v.90909091h-.9428572v-.90909091z"/></g><g fill-rule="nonzero"><path d="m142 0v28h-2v-28z" opacity=".2"/><g><path d="m18 2h3v3h-3z" opacity=".5"/><path d="m15 2h3v3h-3z" opacity=".5"/><path d="m3 2h3v3h-3z" opacity=".5"/><path d="m0 2h3v3h-3z" opacity=".5"/><path d="m18 5h3v3h-3z"/><path d="m3 5h3v3h-3z"/><path d="m0 5h3v3h-3z" opacity=".2"/><path d="m15 5h3v3h-3z" opacity=".2"/><path d="m9 14h3v3h-3z"/><path d="m6 14h3v3h-3z"/><path d="m12 23h3v3h-3z"/><path d="m15 20h3v3h-3z"/><path d="m9 23h3v3h-3z"/><path d="m6 23h3v3h-3z"/></g></g></g></svg>